<mxfile host="app.diagrams.net" agent="Mozilla/5.0 (Macintosh; Intel Mac OS X 10_15_7) AppleWebKit/537.36 (KHTML, like Gecko) Chrome/139.0.0.0 Safari/537.36" version="28.2.2">
  <diagram name="Page-1" id="BGRh73bEn5YRGxfqs0sI">
    <mxGraphModel grid="1" page="1" gridSize="10" guides="1" tooltips="1" connect="1" arrows="1" fold="1" pageScale="1" pageWidth="850" pageHeight="1100" math="0" shadow="0">
      <root>
        <mxCell id="0" />
        <mxCell id="1" parent="0" />
        <mxCell id="ivSaa4TTtUkJpGnWm3Vk-1" value="&lt;font style=&quot;font-size: 15px;&quot;&gt;Main&lt;/font&gt;" style="rounded=1;whiteSpace=wrap;html=1;fillColor=#0050ef;fontColor=#ffffff;strokeColor=#001DBC;" vertex="1" parent="1">
          <mxGeometry x="10" y="310" width="80" height="50" as="geometry" />
        </mxCell>
        <mxCell id="zPv1_7KToAFgWlqgHp2E-2" value="" style="shape=flexArrow;endArrow=classic;html=1;rounded=0;" edge="1" parent="1">
          <mxGeometry width="50" height="50" relative="1" as="geometry">
            <mxPoint x="100" y="330" as="sourcePoint" />
            <mxPoint x="240" y="330" as="targetPoint" />
          </mxGeometry>
        </mxCell>
        <mxCell id="zPv1_7KToAFgWlqgHp2E-3" value="&lt;font style=&quot;font-size: 20px;&quot;&gt;Game&amp;nbsp;&lt;/font&gt;&lt;div&gt;&lt;font style=&quot;font-size: 20px;&quot;&gt;(class)&lt;/font&gt;&lt;/div&gt;" style="rounded=1;whiteSpace=wrap;html=1;fillColor=#0050ef;fontColor=#ffffff;strokeColor=#001DBC;" vertex="1" parent="1">
          <mxGeometry x="250" y="270" width="120" height="90" as="geometry" />
        </mxCell>
        <mxCell id="zPv1_7KToAFgWlqgHp2E-6" value="&lt;font style=&quot;font-size: 14px;&quot;&gt;Creates and runs&lt;/font&gt;" style="text;html=1;align=center;verticalAlign=middle;resizable=0;points=[];autosize=1;strokeColor=none;fillColor=none;" vertex="1" parent="1">
          <mxGeometry x="100" y="290" width="130" height="30" as="geometry" />
        </mxCell>
        <mxCell id="zPv1_7KToAFgWlqgHp2E-9" value="" style="shape=flexArrow;endArrow=classic;html=1;rounded=0;" edge="1" parent="1">
          <mxGeometry width="50" height="50" relative="1" as="geometry">
            <mxPoint x="380" y="330" as="sourcePoint" />
            <mxPoint x="510" y="330" as="targetPoint" />
          </mxGeometry>
        </mxCell>
        <mxCell id="zPv1_7KToAFgWlqgHp2E-10" value="" style="shape=flexArrow;endArrow=classic;html=1;rounded=0;" edge="1" parent="1">
          <mxGeometry width="50" height="50" relative="1" as="geometry">
            <mxPoint x="380" y="360" as="sourcePoint" />
            <mxPoint x="490" y="420" as="targetPoint" />
          </mxGeometry>
        </mxCell>
        <mxCell id="zPv1_7KToAFgWlqgHp2E-11" value="" style="shape=flexArrow;endArrow=classic;html=1;rounded=0;" edge="1" parent="1">
          <mxGeometry width="50" height="50" relative="1" as="geometry">
            <mxPoint x="380" y="270" as="sourcePoint" />
            <mxPoint x="490" y="220" as="targetPoint" />
          </mxGeometry>
        </mxCell>
        <mxCell id="zPv1_7KToAFgWlqgHp2E-12" value="&lt;font style=&quot;font-size: 20px;&quot;&gt;Player (interface)&lt;/font&gt;" style="rounded=1;whiteSpace=wrap;html=1;fillColor=#0050ef;fontColor=#ffffff;strokeColor=#001DBC;" vertex="1" parent="1">
          <mxGeometry x="500" y="140" width="100" height="80" as="geometry" />
        </mxCell>
        <mxCell id="zPv1_7KToAFgWlqgHp2E-13" value="&lt;font style=&quot;font-size: 20px;&quot;&gt;Pack (class)&lt;/font&gt;" style="rounded=1;whiteSpace=wrap;html=1;fillColor=#0050ef;fontColor=#ffffff;strokeColor=#001DBC;" vertex="1" parent="1">
          <mxGeometry x="520" y="280" width="100" height="80" as="geometry" />
        </mxCell>
        <mxCell id="zPv1_7KToAFgWlqgHp2E-14" value="&lt;font style=&quot;font-size: 20px;&quot;&gt;Trick (counter)&lt;/font&gt;" style="rounded=1;whiteSpace=wrap;html=1;fillColor=#0050ef;fontColor=#ffffff;strokeColor=#001DBC;" vertex="1" parent="1">
          <mxGeometry x="495" y="420" width="95" height="70" as="geometry" />
        </mxCell>
        <mxCell id="zPv1_7KToAFgWlqgHp2E-15" value="&lt;font style=&quot;font-size: 20px;&quot;&gt;Card (class)&lt;/font&gt;" style="rounded=1;whiteSpace=wrap;html=1;fillColor=#0050ef;fontColor=#ffffff;strokeColor=#001DBC;" vertex="1" parent="1">
          <mxGeometry x="730" y="190" width="100" height="70" as="geometry" />
        </mxCell>
        <mxCell id="zPv1_7KToAFgWlqgHp2E-16" value="" style="shape=flexArrow;endArrow=classic;html=1;rounded=0;" edge="1" parent="1">
          <mxGeometry width="50" height="50" relative="1" as="geometry">
            <mxPoint x="610" y="190" as="sourcePoint" />
            <mxPoint x="720" y="220" as="targetPoint" />
          </mxGeometry>
        </mxCell>
        <mxCell id="zPv1_7KToAFgWlqgHp2E-17" value="" style="shape=flexArrow;endArrow=classic;html=1;rounded=0;" edge="1" parent="1">
          <mxGeometry width="50" height="50" relative="1" as="geometry">
            <mxPoint x="630" y="320" as="sourcePoint" />
            <mxPoint x="720" y="260" as="targetPoint" />
          </mxGeometry>
        </mxCell>
        <mxCell id="zPv1_7KToAFgWlqgHp2E-18" value="&lt;font style=&quot;font-size: 20px;&quot;&gt;Simple Player&lt;/font&gt;" style="rounded=1;whiteSpace=wrap;html=1;fillColor=#0050ef;fontColor=#ffffff;strokeColor=#001DBC;" vertex="1" parent="1">
          <mxGeometry x="270" y="40" width="140" height="50" as="geometry" />
        </mxCell>
        <mxCell id="zPv1_7KToAFgWlqgHp2E-19" value="&lt;font style=&quot;font-size: 20px;&quot;&gt;Human Player&lt;/font&gt;" style="rounded=1;whiteSpace=wrap;html=1;fillColor=#0050ef;fontColor=#ffffff;strokeColor=#001DBC;" vertex="1" parent="1">
          <mxGeometry x="240" y="140" width="150" height="50" as="geometry" />
        </mxCell>
        <mxCell id="zPv1_7KToAFgWlqgHp2E-20" value="" style="shape=flexArrow;endArrow=classic;html=1;rounded=0;" edge="1" parent="1">
          <mxGeometry width="50" height="50" relative="1" as="geometry">
            <mxPoint x="420" y="80" as="sourcePoint" />
            <mxPoint x="505" y="130" as="targetPoint" />
          </mxGeometry>
        </mxCell>
        <mxCell id="zPv1_7KToAFgWlqgHp2E-21" value="" style="shape=flexArrow;endArrow=classic;html=1;rounded=0;" edge="1" parent="1">
          <mxGeometry width="50" height="50" relative="1" as="geometry">
            <mxPoint x="400" y="170" as="sourcePoint" />
            <mxPoint x="490" y="170" as="targetPoint" />
          </mxGeometry>
        </mxCell>
        <mxCell id="zPv1_7KToAFgWlqgHp2E-22" value="&lt;font style=&quot;font-size: 14px;&quot;&gt;Inherits&lt;/font&gt;" style="text;html=1;align=center;verticalAlign=middle;resizable=0;points=[];autosize=1;strokeColor=none;fillColor=none;rotation=30;" vertex="1" parent="1">
          <mxGeometry x="425" y="60" width="70" height="30" as="geometry" />
        </mxCell>
        <mxCell id="zPv1_7KToAFgWlqgHp2E-23" value="&lt;font style=&quot;font-size: 14px;&quot;&gt;Inherits&lt;/font&gt;" style="text;html=1;align=center;verticalAlign=middle;resizable=0;points=[];autosize=1;strokeColor=none;fillColor=none;" vertex="1" parent="1">
          <mxGeometry x="395" y="130" width="70" height="30" as="geometry" />
        </mxCell>
        <mxCell id="zPv1_7KToAFgWlqgHp2E-26" value="&lt;font style=&quot;font-size: 14px;&quot;&gt;Contains&lt;/font&gt;" style="text;html=1;align=center;verticalAlign=middle;resizable=0;points=[];autosize=1;strokeColor=none;fillColor=none;rotation=-35;" vertex="1" parent="1">
          <mxGeometry x="639.9953390593274" y="299.99533905932736" width="80" height="30" as="geometry" />
        </mxCell>
        <mxCell id="zPv1_7KToAFgWlqgHp2E-28" value="&lt;font style=&quot;font-size: 14px;&quot;&gt;Plays &amp;amp; scores&lt;/font&gt;" style="text;html=1;align=center;verticalAlign=middle;resizable=0;points=[];autosize=1;strokeColor=none;fillColor=none;rotation=30;" vertex="1" parent="1">
          <mxGeometry x="349.99533905932736" y="389.99533905932736" width="120" height="30" as="geometry" />
        </mxCell>
        <mxCell id="zPv1_7KToAFgWlqgHp2E-29" value="&lt;font style=&quot;font-size: 14px;&quot;&gt;Has a hand which contains&lt;/font&gt;" style="text;html=1;align=center;verticalAlign=middle;whiteSpace=wrap;rounded=0;rotation=15;" vertex="1" parent="1">
          <mxGeometry x="610" y="160" width="100" height="30" as="geometry" />
        </mxCell>
        <mxCell id="zPv1_7KToAFgWlqgHp2E-30" value="&lt;font style=&quot;font-size: 14px;&quot;&gt;Deals &amp;amp; shuffles&lt;/font&gt;" style="text;html=1;align=center;verticalAlign=middle;whiteSpace=wrap;rounded=0;" vertex="1" parent="1">
          <mxGeometry x="380" y="290" width="115" height="30" as="geometry" />
        </mxCell>
        <mxCell id="zPv1_7KToAFgWlqgHp2E-31" value="&lt;font style=&quot;font-size: 14px;&quot;&gt;Manages&lt;/font&gt;" style="text;html=1;align=center;verticalAlign=middle;whiteSpace=wrap;rounded=0;rotation=-25;" vertex="1" parent="1">
          <mxGeometry x="380" y="220" width="60" height="30" as="geometry" />
        </mxCell>
      </root>
    </mxGraphModel>
  </diagram>
</mxfile>
